<svg width="35" height="35" viewBox="0 0 35 35" fill="none" xmlns="http://www.w3.org/2000/svg">
<path d="M28.4372 31.7188H28.2512C6.75905 30.4828 3.70749 12.3484 3.28093 6.81406C3.24655 6.38376 3.29743 5.9509 3.43063 5.54029C3.56384 5.12968 3.77675 4.74939 4.05718 4.42121C4.33761 4.09303 4.68003 3.82341 5.06484 3.62779C5.44965 3.43218 5.86928 3.31441 6.29968 3.28125H12.3262C12.7643 3.28083 13.1925 3.41196 13.5552 3.65768C13.9179 3.90339 14.1985 4.25236 14.3606 4.65938L16.0231 8.75C16.1832 9.14763 16.2229 9.58352 16.1374 10.0035C16.0518 10.4236 15.8447 10.8092 15.5419 11.1125L13.2122 13.4641C13.5761 15.5321 14.5664 17.4384 16.0492 18.9251C17.5321 20.4118 19.4358 21.4072 21.5028 21.7766L23.8762 19.425C24.1841 19.1255 24.5734 18.9232 24.9955 18.8435C25.4175 18.7638 25.8537 18.81 26.2497 18.9766L30.3731 20.6281C30.774 20.7953 31.116 21.0781 31.3556 21.4404C31.5952 21.8027 31.7215 22.2282 31.7184 22.6625V28.4375C31.7184 29.3077 31.3727 30.1423 30.7574 30.7577C30.142 31.373 29.3074 31.7188 28.4372 31.7188ZM6.56218 5.46875C6.27209 5.46875 5.9939 5.58399 5.78878 5.7891C5.58366 5.99422 5.46843 6.27242 5.46843 6.5625V6.65C5.97155 13.125 9.19811 28.4375 28.3716 29.5312C28.5152 29.5401 28.6593 29.5206 28.7954 29.4737C28.9315 29.4267 29.057 29.3534 29.1647 29.2579C29.2724 29.1624 29.3602 29.0466 29.4231 28.917C29.4859 28.7875 29.5226 28.6468 29.5309 28.5031V22.6625L25.4075 21.0109L22.2684 24.1281L21.7434 24.0625C12.2278 22.8703 10.9372 13.3547 10.9372 13.2563L10.8716 12.7313L13.9778 9.59219L12.3372 5.46875H6.56218Z" fill="#009E3B"/>
</svg>
