<svg width="93" height="19" viewBox="0 0 93 19" fill="none" xmlns="http://www.w3.org/2000/svg">
<path fill-rule="evenodd" clip-rule="evenodd" d="M34.1892 3.71648C33.6697 3.72094 33.1526 3.64844 32.6563 3.50154C32.1972 3.36462 31.7658 3.15387 31.3806 2.87832C31.0048 2.6097 30.6892 2.2716 30.4524 1.88406C30.2063 1.4758 30.0568 1.02079 30.0146 0.551168L32.2562 0C32.548 1.13516 33.1923 1.70274 34.1892 1.70274C35.2027 1.70274 35.847 1.14236 36.1221 0.0216144L38.3386 0.575184C38.2793 1.04282 38.1259 1.49504 37.8871 1.90687C37.6616 2.29113 37.3543 2.62577 36.9852 2.88913C36.5992 3.16064 36.1678 3.36732 35.7095 3.50034C35.217 3.64539 34.7044 3.71787 34.1892 3.71528V3.71648ZM40.0847 5.58733V18.1261H36.999C36.999 17.2143 37.0031 16.3113 37.0115 15.4171C37.0199 14.5229 37.0282 13.6916 37.0366 12.923C37.0449 12.1561 37.0537 11.4889 37.0629 10.9213C37.0721 10.3537 37.0763 9.93424 37.0755 9.66286C36.5595 10.2857 36.0268 10.9729 35.4774 11.7246C34.928 12.4763 34.3844 13.2276 33.8467 13.9785C33.3057 14.7294 32.7947 15.4647 32.3139 16.1844C31.833 16.9041 31.4103 17.5513 31.0457 18.1261H28.2886V5.58613H31.3543C31.3543 6.51315 31.3501 7.39614 31.3417 8.2351C31.3334 9.07406 31.3292 9.83737 31.3292 10.525C31.3292 11.2127 31.325 11.8131 31.3166 12.3262C31.3083 12.8394 31.3041 13.2312 31.3041 13.5018C31.7841 12.8166 32.2821 12.1081 32.798 11.3764C33.314 10.6447 33.8337 9.93344 34.3572 9.24258C34.8816 8.54691 35.4013 7.88727 35.9164 7.26365C36.4316 6.64004 36.93 6.07966 37.4116 5.58253L40.0847 5.58733ZM22.0635 9.68305C22.1844 10.0538 22.2449 10.4402 22.2429 10.8286L16.4778 10.8238C16.5295 10.4546 16.6242 10.0922 16.76 9.74309C16.8911 9.39873 17.0866 9.08012 17.337 8.80286C17.5903 8.52541 17.8997 8.29994 18.2464 8.14002C18.6388 7.96494 19.068 7.87866 19.5008 7.88785C19.9109 7.87758 20.3181 7.95554 20.6925 8.116C21.0185 8.26363 21.307 8.47754 21.5379 8.74282C21.7755 9.02038 21.9541 9.3398 22.0635 9.68305ZM13.7733 9.21473C13.4052 10.1459 13.2268 11.136 13.2477 12.1315C13.2386 13.0183 13.3775 13.9008 13.6592 14.7456C13.9164 15.5153 14.3443 16.2227 14.9136 16.8194C15.5122 17.4285 16.2485 17.8984 17.0661 18.1931C18.0497 18.5416 19.0932 18.7094 20.1418 18.6879C20.5957 18.6883 21.0492 18.6643 21.5003 18.6158C21.9443 18.5678 22.3587 18.5073 22.7434 18.4345C23.0892 18.3718 23.4312 18.2916 23.7682 18.1943C24.0095 18.1276 24.2452 18.0433 24.4731 17.9422L24.063 15.555C23.5854 15.7334 23.0922 15.8704 22.5891 15.9644C21.9103 16.0986 21.2187 16.1634 20.5256 16.1578C19.475 16.2262 18.4337 15.9309 17.5916 15.3256C17.2457 15.0276 16.9664 14.6657 16.7705 14.2616C16.5745 13.8576 16.466 13.4197 16.4514 12.9744H25.2923C25.3098 12.8135 25.3228 12.6326 25.3311 12.4317C25.3395 12.2307 25.3437 12.0502 25.3437 11.8901C25.4803 10.1534 24.9266 8.43137 23.7933 7.0689C23.2369 6.5188 22.5633 6.08983 21.8183 5.81115C21.0733 5.53246 20.2743 5.41059 19.4757 5.45382C18.6851 5.45627 17.9021 5.6013 17.1677 5.88131C16.4176 6.16138 15.737 6.58838 15.1694 7.13494C14.5607 7.72976 14.0856 8.43755 13.7733 9.21473ZM4.10933 16.3916C3.63685 16.3676 3.29775 16.3392 3.09203 16.3064V12.9225H5.64469C6.38876 12.8958 7.13003 13.024 7.81726 13.2984C8.08782 13.4174 8.31346 13.6134 8.46341 13.8597C8.61336 14.1059 8.68033 14.3905 8.65519 14.6745C8.68123 14.9699 8.6064 15.2654 8.44195 15.5166C8.2775 15.7678 8.03232 15.9611 7.74326 16.0674C7.00629 16.3306 6.22259 16.453 5.43646 16.4277C5.02419 16.4277 4.58181 16.4156 4.10933 16.3916ZM7.35816 10.5605C6.74717 10.79 6.09372 10.8979 5.43772 10.8775H3.09078V7.88394C3.33078 7.85112 3.65274 7.82671 4.05665 7.8107C4.46056 7.79468 4.81722 7.78668 5.12663 7.78668C5.50386 7.78616 5.88081 7.80661 6.25557 7.84792C6.58328 7.88044 6.90437 7.95809 7.20889 8.07847C7.46429 8.17862 7.69002 8.33739 7.86619 8.54078C8.03862 8.7567 8.12731 9.02328 8.11706 9.29489C8.14653 9.55555 8.08895 9.81846 7.95261 10.0458C7.81626 10.2732 7.60815 10.4534 7.35816 10.5605ZM3.83964 18.6912C4.35143 18.724 4.85819 18.7404 5.35994 18.7404H5.3612C7.02141 18.8463 8.67786 18.4866 10.1278 17.7053C10.6395 17.3876 11.056 16.9478 11.3362 16.4292C11.6164 15.9106 11.7507 15.3311 11.7259 14.7477C11.7758 14.0027 11.5373 13.2662 11.0561 12.6787C10.6232 12.2016 10.0744 11.8338 9.45799 11.6076C9.96523 11.3763 10.3926 11.0106 10.6894 10.5539C10.9862 10.0971 11.14 9.56854 11.1326 9.03071C11.1469 8.50361 11.0134 7.98247 10.746 7.52148C10.4787 7.06048 10.0872 6.67647 9.61228 6.40936C8.3161 5.71791 6.84145 5.3931 5.35994 5.47273C4.86154 5.47193 4.35477 5.48434 3.83964 5.50996C3.32451 5.53557 2.83071 5.568 2.35822 5.60722C1.88658 5.64645 1.4442 5.69488 1.0311 5.75252C0.617989 5.81016 0.27429 5.8714 0 5.93624V18.2289C0.27429 18.2945 0.617571 18.3557 1.02984 18.4126C1.44211 18.4694 1.88449 18.5223 2.35697 18.5711C2.83363 18.6183 3.32786 18.6583 3.83964 18.6912ZM48.7363 9.2969C48.2739 9.758 47.8465 10.1743 47.4543 10.5457V5.45312H44.3535V18.142H47.4568V12.443C47.9607 12.8011 48.44 13.1897 48.8918 13.6066C49.3877 14.0581 49.8749 14.5384 50.3532 15.0475C50.8315 15.5551 51.2885 16.0754 51.7242 16.6086C52.1599 17.1417 52.54 17.6509 52.8645 18.136H56.452C56.0836 17.5217 55.6817 16.9265 55.2478 16.3528C54.7694 15.7116 54.2526 15.0812 53.6973 14.4615C53.1421 13.8419 52.578 13.2519 52.0052 12.6916C51.48 12.176 50.9278 11.6862 50.3507 11.2242C50.7613 10.8367 51.2183 10.3964 51.7217 9.9033C52.2251 9.41017 52.7378 8.90103 53.2596 8.37588C53.7789 7.84993 54.2819 7.33638 54.7686 6.83525C55.2553 6.33411 55.6868 5.87341 56.0631 5.45312H52.4254C52.1536 5.75893 51.8125 6.12638 51.4019 6.55546C50.9913 6.98455 50.5597 7.43325 50.1073 7.90156C49.6558 8.37068 49.1987 8.83579 48.7363 9.2969Z" fill="#151515"/>
<path fill-rule="evenodd" clip-rule="evenodd" d="M65.3596 16.3623C66.0957 16.379 66.8318 16.3303 67.5585 16.217V12.9749C67.311 12.9117 67.0597 12.8632 66.8059 12.8296C66.4462 12.7793 66.0831 12.7552 65.7196 12.7575C65.3687 12.7577 65.0183 12.7818 64.671 12.8296C64.3398 12.8716 64.0172 12.9611 63.7139 13.095C63.4393 13.2161 63.2027 13.4041 63.0277 13.6401C62.8471 13.9011 62.7567 14.2099 62.7693 14.5227C62.7375 14.801 62.7858 15.0824 62.9089 15.3364C63.0321 15.5904 63.2254 15.8073 63.468 15.9637C64.0492 16.2558 64.7015 16.3935 65.3571 16.3623H65.3596ZM65.1012 5.45184C65.9872 5.42938 66.8707 5.55119 67.7141 5.81209C68.3564 6.01473 68.9378 6.36329 69.4087 6.82796C69.8399 7.27856 70.1506 7.82241 70.3144 8.41302C70.5014 9.07851 70.593 9.76526 70.5866 10.4544V18.1239C70.1032 18.2208 69.3744 18.3377 68.4002 18.4745C67.3072 18.6192 66.2046 18.6878 65.1012 18.6799C64.3533 18.6864 63.607 18.6135 62.876 18.4625C62.2592 18.3409 61.6741 18.1025 61.1549 17.7613C60.6795 17.4379 60.2969 17.0051 60.0423 16.5028C59.7565 15.9041 59.6191 15.2503 59.6409 14.5924C59.619 13.952 59.7753 13.3175 60.0937 12.7539C60.3929 12.2564 60.815 11.8366 61.323 11.5315C61.8747 11.204 62.4837 10.9746 63.1206 10.8543C63.822 10.7153 64.5367 10.6465 65.253 10.6489C65.616 10.6498 65.9786 10.6699 66.3393 10.709C66.7483 10.7544 67.1542 10.823 67.5548 10.9143V10.434C67.5577 10.1075 67.5155 9.78204 67.4293 9.46613C67.3463 9.1659 67.1913 8.88836 66.9765 8.65559C66.7424 8.40998 66.4491 8.22283 66.1223 8.11042C65.6939 7.97019 65.2427 7.90471 64.7901 7.91709C64.1231 7.91317 63.4569 7.96177 62.7982 8.06239C62.2973 8.13515 61.8039 8.24843 61.323 8.40102L60.9354 6.03063C61.503 5.86249 62.0823 5.73288 62.669 5.64277C63.4723 5.51117 64.2862 5.44728 65.1012 5.45184ZM86.1369 5.45312V18.1348H82.9332V7.90276H77.8216V18.136H74.6167V5.45312H86.1369ZM92.8623 17.7912C92.9624 17.5455 93.0086 17.2828 92.9981 17.0193C93.008 16.7539 92.9615 16.4894 92.8615 16.2417C92.7614 15.994 92.6099 15.7683 92.4161 15.5784C92.2361 15.3972 92.019 15.2535 91.7783 15.1564C91.5377 15.0593 91.2786 15.0108 91.0175 15.014C90.7541 15.0082 90.4924 15.0555 90.2493 15.1527C90.0062 15.25 89.7871 15.395 89.6063 15.5784C89.4157 15.77 89.2672 15.9963 89.1693 16.2437C89.0715 16.4912 89.0265 16.7549 89.0368 17.0193C89.0258 17.2818 89.0705 17.5437 89.1684 17.7892C89.2663 18.0346 89.4153 18.2584 89.6063 18.4471C89.7891 18.6271 90.0089 18.769 90.2517 18.8638C90.4946 18.9587 90.7553 19.0044 91.0175 18.9983C91.2775 19.002 91.5355 18.9551 91.776 18.8603C92.0164 18.7656 92.2342 18.625 92.4161 18.4471C92.6103 18.2601 92.7621 18.0368 92.8623 17.7912ZM92.8623 8.42491C92.9624 8.17928 93.0086 7.91655 92.9981 7.65307C93.0079 7.38769 92.9614 7.12316 92.8614 6.87548C92.7613 6.6278 92.6099 6.40213 92.4161 6.21211C92.236 6.03113 92.0188 5.8877 91.7782 5.79079C91.5375 5.69389 91.2785 5.64559 91.0175 5.64893C90.7542 5.64303 90.4925 5.69011 90.2494 5.78712C90.0063 5.88413 89.7872 6.02892 89.6063 6.21211C89.4159 6.40365 89.2675 6.6297 89.1697 6.87695C89.0719 7.1242 89.0267 7.38766 89.0368 7.65187C89.0258 7.91437 89.0705 8.17628 89.1684 8.42171C89.2663 8.66714 89.4153 8.89098 89.6063 9.07962C89.7891 9.25979 90.0088 9.40186 90.2516 9.49691C90.4944 9.59196 90.7552 9.63795 91.0175 9.63199C91.2775 9.63575 91.5355 9.58882 91.776 9.49406C92.0164 9.39931 92.2342 9.25871 92.4161 9.08082C92.6103 8.89381 92.7621 8.67054 92.8623 8.42491Z" fill="#FE7F41"/>
</svg>
